<?xml version="1.0" encoding="UTF-8"?>
<svg id="Layer_2" data-name="Layer 2" xmlns="http://www.w3.org/2000/svg" viewBox="0 0 137.55 137.66">
  <defs>
    <style>
      .cls-1 {
        fill: #fefefe;
      }

      .cls-1, .cls-2 {
        stroke-width: 0px;
      }

      .cls-2 {
        fill: #009588;
      }

      .cls-3 {
        opacity: .5;
      }
    </style>
  </defs>
  <g id="Layer_1-2" data-name="Layer 1">
    <g class="cls-3">
      <path class="cls-2" d="m48,12.62c4.42,2.01,7.43-.73,10.78-4.49,6.94-7.76,20.17-10.3,29.71-5.96,3.66,1.66,6.37,1.74,10.3.14,10.03-4.07,19.9-2.87,28.38,4.36,8.89,7.58,11.81,17.31,9.29,28.65-.9,4.03-.98,12.75.02,16.65,3.04,11.87-.43,21.68-9.71,29.43-1.88,1.57-2.56,2.9-2.11,5.33,2.73,14.95-8.98,30.23-24.17,31.6-2.12.19-3.37.95-4.3,2.87-8.41,17.24-32.99,21.47-46.55,9.73-1.78-1.54-3.79-2.79-5.9-3.93-8.05-4.36-15.8-3.96-23.24,1.29-3.06,2.16-5.94,4.55-8.88,6.88-3.91,3.1-6.92,3.3-9.64.56-2.78-2.8-2.65-5.83.48-9.64,3.8-4.63,7.62-9.19,9.93-14.86,2.01-4.94,2.17-9.57-.35-14.39-1.62-3.11-3.41-6.09-5.39-8.97C-4.95,71.05-.81,51.59,16.75,41.33c2.2-1.29,2.27-3,2.56-4.94,2.05-13.84,14.29-24.29,28.69-23.77Z"/>
      <path class="cls-1" d="m26.4,101.46c-.92-8.65-5.13-15.16-9.57-21.52-4.41-6.34-5.62-12.9-2.23-20.09,2.13-4.53,5.43-7.65,10.18-9.29,6.31-2.17,6.81-2.97,6.67-9.79-.23-11.84,10.87-19.61,21.8-15.25,5.61,2.24,8.24,1.17,10.62-4.31,4.17-9.61,15.93-12.55,24.07-6.02,4.98,4,6.48,4.01,11.79.08,6.82-5.05,15.29-4.36,21.01,1.69,5.29,5.61,5.51,14.31.52,20.52-3.65,4.54-3.9,6.37,0,10.79,6.69,7.58,4.08,20.77-5.77,24.71-5.78,2.32-6.43,4.72-4.29,10.66,4.16,11.55-3.45,22.04-15.76,21.74-5.96-.15-6.94.52-9.02,6.18-4.54,12.33-18.15,16.73-28.62,8.98-6.73-4.98-13.84-8.8-22.32-9.79-.26-.39-.52-.78-.78-1.17,1.17-.73,2.52-1.27,3.48-2.22,21.41-21.34,42.78-42.72,64.15-64.1.88-.88,1.8-1.75,2.51-2.76,2.15-3.05,1.86-6.06-.68-8.41-2.47-2.28-5.69-2.31-8.39.26-4.52,4.31-8.87,8.79-13.29,13.2-17.67,17.66-35.33,35.33-53,52.99-.86.86-1.77,1.68-3.08,2.9Z"/>
    </g>
  </g>
</svg>